<svg width="14" height="28" viewBox="0 0 14 28" fill="none" xmlns="http://www.w3.org/2000/svg">
<path d="M13.75 28H0.25V0H13.75V28Z" stroke="#E5E7EB"/>
<g clip-path="url(#clip0_2142_760)">
<path d="M9.8125 17.75C10.15 16.6285 10.8496 15.6723 11.5422 14.7195C11.725 14.4699 11.9078 14.2203 12.0836 13.9672C12.7797 12.9652 13.1875 11.7523 13.1875 10.441C13.1875 7.02031 10.4172 4.25 7 4.25C3.58281 4.25 0.8125 7.02031 0.8125 10.4375C0.8125 11.7488 1.22031 12.9652 1.91641 13.9637C2.09219 14.2168 2.275 14.4664 2.45781 14.716C3.15391 15.6688 3.85352 16.6285 4.1875 17.7465H9.8125V17.75ZM7 22.25C8.55391 22.25 9.8125 20.9914 9.8125 19.4375V18.875H4.1875V19.4375C4.1875 20.9914 5.44609 22.25 7 22.25ZM4.1875 10.4375C4.1875 10.7469 3.93438 11 3.625 11C3.31562 11 3.0625 10.7469 3.0625 10.4375C3.0625 8.26133 4.82383 6.5 7 6.5C7.30937 6.5 7.5625 6.75312 7.5625 7.0625C7.5625 7.37188 7.30937 7.625 7 7.625C5.44609 7.625 4.1875 8.88359 4.1875 10.4375Z" fill="#FFB74D"/>
</g>
<defs>
<clipPath id="clip0_2142_760">
<path d="M0.25 4.25H13.75V22.25H0.25V4.25Z" fill="white"/>
</clipPath>
</defs>
</svg>
