<svg width="125" height="125" viewBox="0 0 125 125" fill="none" xmlns="http://www.w3.org/2000/svg">
<g clip-path="url(#clip0_2142_610)">
<rect width="125" height="125" rx="62.5" fill="white" fill-opacity="0.8"/>
<path d="M67 51C80.2548 51 91 61.7452 91 75C91 88.2548 80.2548 99 67 99C53.7452 99 43 88.2548 43 75C43 61.7452 53.7452 51 67 51Z" fill="#9E9E9E" fill-opacity="0.3"/>
<path d="M67 51C80.2548 51 91 61.7452 91 75C91 88.2548 80.2548 99 67 99C53.7452 99 43 88.2548 43 75C43 61.7452 53.7452 51 67 51Z" stroke="#E5E7EB"/>
<path fill-rule="evenodd" clip-rule="evenodd" d="M67.5942 85.2579L67.5822 85.2599L67.5112 85.2949L67.4912 85.2989L67.4772 85.2949L67.4062 85.2589C67.3955 85.2563 67.3875 85.2583 67.3822 85.2649L67.3782 85.2749L67.3612 85.7029L67.3662 85.7229L67.3762 85.7359L67.4802 85.8099L67.4952 85.8139L67.5072 85.8099L67.6112 85.7359L67.6232 85.7199L67.6272 85.7029L67.6102 85.2759C67.6075 85.2653 67.6022 85.2593 67.5942 85.2579ZM67.8582 85.1449L67.8442 85.1469L67.6602 85.2399L67.6502 85.2499L67.6472 85.2609L67.6652 85.6909L67.6702 85.7029L67.6782 85.7109L67.8792 85.8029C67.8918 85.8063 67.9015 85.8036 67.9082 85.7949L67.9122 85.7809L67.8782 85.1669C67.8748 85.1543 67.8682 85.1469 67.8582 85.1449ZM67.1432 85.1469C67.1388 85.1443 67.1335 85.1434 67.1285 85.1445C67.1234 85.1456 67.119 85.1487 67.1162 85.1529L67.1102 85.1669L67.0762 85.7809C67.0768 85.7929 67.0825 85.8009 67.0932 85.8049L67.1082 85.8029L67.3092 85.7099L67.3192 85.7019L67.3222 85.6909L67.3402 85.2609L67.3372 85.2489L67.3272 85.2389L67.1432 85.1469Z" fill="#EF4444"/>
<g clip-path="url(#clip1_2142_610)">
<path d="M57 75C57 72.3478 58.0536 69.8043 59.9289 67.9289C61.8043 66.0536 64.3478 65 67 65C69.6522 65 72.1957 66.0536 74.0711 67.9289C75.9464 69.8043 77 72.3478 77 75C77 77.6522 75.9464 80.1957 74.0711 82.0711C72.1957 83.9464 69.6522 85 67 85C64.3478 85 61.8043 83.9464 59.9289 82.0711C58.0536 80.1957 57 77.6522 57 75ZM70.75 72.5C70.75 72.1685 70.6183 71.8505 70.3839 71.6161C70.1495 71.3817 69.8315 71.25 69.5 71.25C69.1685 71.25 68.8505 71.3817 68.6161 71.6161C68.3817 71.8505 68.25 72.1685 68.25 72.5C68.25 72.8315 68.3817 73.1495 68.6161 73.3839C68.8505 73.6183 69.1685 73.75 69.5 73.75C69.8315 73.75 70.1495 73.6183 70.3839 73.3839C70.6183 73.1495 70.75 72.8315 70.75 72.5ZM62.625 77.5C62.625 77.8315 62.7567 78.1495 62.9911 78.3839C63.2255 78.6183 63.5435 78.75 63.875 78.75H70.125C70.4565 78.75 70.7745 78.6183 71.0089 78.3839C71.2433 78.1495 71.375 77.8315 71.375 77.5C71.375 77.1685 71.2433 76.8505 71.0089 76.6161C70.7745 76.3817 70.4565 76.25 70.125 76.25H63.875C63.5435 76.25 63.2255 76.3817 62.9911 76.6161C62.7567 76.8505 62.625 77.1685 62.625 77.5ZM64.5 73.75C64.8315 73.75 65.1495 73.6183 65.3839 73.3839C65.6183 73.1495 65.75 72.8315 65.75 72.5C65.75 72.1685 65.6183 71.8505 65.3839 71.6161C65.1495 71.3817 64.8315 71.25 64.5 71.25C64.1685 71.25 63.8505 71.3817 63.6161 71.6161C63.3817 71.8505 63.25 72.1685 63.25 72.5C63.25 72.8315 63.3817 73.1495 63.6161 73.3839C63.8505 73.6183 64.1685 73.75 64.5 73.75Z" fill="#9E9E9E"/>
</g>
<path d="M104 10C117.255 10 128 20.7452 128 34C128 47.2548 117.255 58 104 58C90.7452 58 80 47.2548 80 34C80 20.7452 90.7452 10 104 10Z" fill="#F44336" fill-opacity="0.3"/>
<path d="M104 10C117.255 10 128 20.7452 128 34C128 47.2548 117.255 58 104 58C90.7452 58 80 47.2548 80 34C80 20.7452 90.7452 10 104 10Z" stroke="#E5E7EB"/>
<path fill-rule="evenodd" clip-rule="evenodd" d="M104 23C109.523 23 114 27.477 114 33C114 38.523 109.523 43 104 43C98.477 43 94 38.523 94 33C94 27.477 98.477 23 104 23ZM104 34C102.782 34 101.606 34.4445 100.693 35.25C100.494 35.4254 100.373 35.6727 100.356 35.9374C100.34 36.2021 100.429 36.4626 100.604 36.6615C100.78 36.8604 101.027 36.9815 101.292 36.9981C101.557 37.0147 101.817 36.9254 102.016 36.75C102.564 36.2668 103.269 36.0001 104 36C104.731 35.9982 105.437 36.2651 105.984 36.75C106.183 36.9256 106.443 37.0149 106.708 36.9984C106.973 36.9819 107.22 36.8609 107.396 36.662C107.572 36.4631 107.661 36.2026 107.644 35.9378C107.628 35.673 107.507 35.4256 107.308 35.25C106.394 34.4443 105.218 33.9998 104 34ZM99.106 29.553C98.9876 29.7901 98.9681 30.0646 99.052 30.316C99.1358 30.5675 99.316 30.7754 99.553 30.894L101.553 31.894C101.671 31.9576 101.8 31.9968 101.934 32.0094C102.067 32.022 102.201 32.0077 102.329 31.9673C102.457 31.9269 102.575 31.8613 102.677 31.7743C102.779 31.6874 102.862 31.5808 102.922 31.461C102.982 31.3412 103.017 31.2107 103.026 31.077C103.034 30.9433 103.016 30.8094 102.971 30.683C102.927 30.5566 102.858 30.4404 102.768 30.3413C102.678 30.2422 102.569 30.1622 102.447 30.106L100.447 29.106C100.21 28.9876 99.9354 28.9681 99.684 29.052C99.4325 29.1358 99.2246 29.316 99.106 29.553ZM107.553 29.106L105.553 30.106C105.431 30.1622 105.322 30.2422 105.232 30.3413C105.142 30.4404 105.073 30.5566 105.029 30.683C104.984 30.8094 104.966 30.9433 104.974 31.077C104.983 31.2107 105.018 31.3412 105.078 31.461C105.138 31.5808 105.221 31.6874 105.323 31.7743C105.425 31.8613 105.543 31.9269 105.671 31.9673C105.799 32.0077 105.933 32.022 106.066 32.0094C106.2 31.9968 106.329 31.9576 106.447 31.894L108.447 30.894C108.569 30.8378 108.678 30.7578 108.768 30.6587C108.858 30.5596 108.927 30.4434 108.971 30.317C109.016 30.1906 109.034 30.0567 109.026 29.923C109.017 29.7893 108.982 29.6588 108.922 29.539C108.862 29.4192 108.779 29.3126 108.677 29.2257C108.575 29.1387 108.457 29.0731 108.329 29.0327C108.201 28.9923 108.067 28.978 107.934 28.9906C107.8 29.0032 107.671 29.0424 107.553 29.106Z" fill="#F44336"/>
<path d="M24 20C37.2548 20 48 30.7452 48 44C48 57.2548 37.2548 68 24 68C10.7452 68 0 57.2548 0 44C0 30.7452 10.7452 20 24 20Z" fill="#22C55E" fill-opacity="0.08"/>
<path d="M24 20C37.2548 20 48 30.7452 48 44C48 57.2548 37.2548 68 24 68C10.7452 68 0 57.2548 0 44C0 30.7452 10.7452 20 24 20Z" stroke="#E5E7EB"/>
<path fill-rule="evenodd" clip-rule="evenodd" d="M24.5942 54.2579L24.5822 54.2599L24.5112 54.2949L24.4912 54.2989L24.4772 54.2949L24.4062 54.2589C24.3955 54.2563 24.3875 54.2583 24.3822 54.2649L24.3782 54.2749L24.3612 54.7029L24.3662 54.7229L24.3762 54.7359L24.4802 54.8099L24.4952 54.8139L24.5072 54.8099L24.6112 54.7359L24.6232 54.7199L24.6272 54.7029L24.6102 54.2759C24.6075 54.2653 24.6022 54.2593 24.5942 54.2579ZM24.8582 54.1449L24.8442 54.1469L24.6602 54.2399L24.6502 54.2499L24.6472 54.2609L24.6652 54.6909L24.6702 54.7029L24.6782 54.7109L24.8792 54.8029C24.8918 54.8063 24.9015 54.8036 24.9082 54.7949L24.9122 54.7809L24.8782 54.1669C24.8748 54.1543 24.8682 54.1469 24.8582 54.1449ZM24.1432 54.1469C24.1388 54.1443 24.1335 54.1434 24.1285 54.1445C24.1234 54.1456 24.119 54.1487 24.1162 54.1529L24.1102 54.1669L24.0762 54.7809C24.0768 54.7929 24.0825 54.8009 24.0932 54.8049L24.1082 54.8029L24.3092 54.7099L24.3192 54.7019L24.3222 54.6909L24.3402 54.2609L24.3372 54.2489L24.3272 54.2389L24.1432 54.1469Z" fill="#EF4444"/>
<path d="M34 58H14V30H34V58Z" stroke="#E5E7EB"/>
<g clip-path="url(#clip2_2142_610)">
<path d="M24 53.5C26.6522 53.5 29.1957 52.4464 31.0711 50.5711C32.9464 48.6957 34 46.1522 34 43.5C34 40.8478 32.9464 38.3043 31.0711 36.4289C29.1957 34.5536 26.6522 33.5 24 33.5C21.3478 33.5 18.8043 34.5536 16.9289 36.4289C15.0536 38.3043 14 40.8478 14 43.5C14 46.1522 15.0536 48.6957 16.9289 50.5711C18.8043 52.4464 21.3478 53.5 24 53.5ZM20.4102 46.2148C21.1094 47.0234 22.3047 47.875 24 47.875C25.6953 47.875 26.8906 47.0234 27.5898 46.2148C27.8164 45.9531 28.2109 45.9258 28.4727 46.1523C28.7344 46.3789 28.7617 46.7734 28.5352 47.0352C27.6641 48.0352 26.1523 49.125 24 49.125C21.8477 49.125 20.3359 48.0352 19.4648 47.0352C19.2383 46.7734 19.2656 46.3789 19.5273 46.1523C19.7891 45.9258 20.1836 45.9531 20.4102 46.2148ZM19.6406 41.625C19.6406 41.2935 19.7723 40.9755 20.0067 40.7411C20.2412 40.5067 20.5591 40.375 20.8906 40.375C21.2221 40.375 21.5401 40.5067 21.7745 40.7411C22.0089 40.9755 22.1406 41.2935 22.1406 41.625C22.1406 41.9565 22.0089 42.2745 21.7745 42.5089C21.5401 42.7433 21.2221 42.875 20.8906 42.875C20.5591 42.875 20.2412 42.7433 20.0067 42.5089C19.7723 42.2745 19.6406 41.9565 19.6406 41.625ZM27.1406 40.375C27.4721 40.375 27.7901 40.5067 28.0245 40.7411C28.2589 40.9755 28.3906 41.2935 28.3906 41.625C28.3906 41.9565 28.2589 42.2745 28.0245 42.5089C27.7901 42.7433 27.4721 42.875 27.1406 42.875C26.8091 42.875 26.4912 42.7433 26.2567 42.5089C26.0223 42.2745 25.8906 41.9565 25.8906 41.625C25.8906 41.2935 26.0223 40.9755 26.2567 40.7411C26.4912 40.5067 26.8091 40.375 27.1406 40.375Z" fill="#22C55E"/>
</g>
<path d="M81 98C94.2548 98 105 108.745 105 122C105 135.255 94.2548 146 81 146C67.7452 146 57 135.255 57 122C57 108.745 67.7452 98 81 98Z" fill="#FFC107" fill-opacity="0.3"/>
<path d="M81 98C94.2548 98 105 108.745 105 122C105 135.255 94.2548 146 81 146C67.7452 146 57 135.255 57 122C57 108.745 67.7452 98 81 98Z" stroke="#E5E7EB"/>
<path fill-rule="evenodd" clip-rule="evenodd" d="M81 112C86.523 112 91 116.477 91 122C91 127.523 86.523 132 81 132C75.477 132 71 127.523 71 122C71 116.477 75.477 112 81 112ZM81 123C79.7822 123 78.6063 123.445 77.693 124.25C77.4941 124.425 77.373 124.673 77.3564 124.937C77.3398 125.202 77.4291 125.463 77.6045 125.661C77.7799 125.86 78.0272 125.981 78.2919 125.998C78.5566 126.015 78.8171 125.925 79.016 125.75C79.5639 125.267 80.2694 125 81 125C81.7309 124.998 82.437 125.265 82.984 125.75C83.1829 125.926 83.4434 126.015 83.7082 125.998C83.973 125.982 84.2204 125.861 84.396 125.662C84.5716 125.463 84.6609 125.203 84.6444 124.938C84.6279 124.673 84.5069 124.426 84.308 124.25C83.3944 123.444 82.2181 123 81 123ZM77.5 118C77.1022 118 76.7206 118.158 76.4393 118.439C76.158 118.721 76 119.102 76 119.5C76 119.898 76.158 120.279 76.4393 120.561C76.7206 120.842 77.1022 121 77.5 121C77.8978 121 78.2794 120.842 78.5607 120.561C78.842 120.279 79 119.898 79 119.5C79 119.102 78.842 118.721 78.5607 118.439C78.2794 118.158 77.8978 118 77.5 118ZM84.5 118C84.1022 118 83.7206 118.158 83.4393 118.439C83.158 118.721 83 119.102 83 119.5C83 119.898 83.158 120.279 83.4393 120.561C83.7206 120.842 84.1022 121 84.5 121C84.8978 121 85.2794 120.842 85.5607 120.561C85.842 120.279 86 119.898 86 119.5C86 119.102 85.842 118.721 85.5607 118.439C85.2794 118.158 84.8978 118 84.5 118Z" fill="#FFC107"/>
<path d="M21 63C34.2548 63 45 73.7452 45 87C45 100.255 34.2548 111 21 111C7.74517 111 -3 100.255 -3 87C-3 73.7452 7.74517 63 21 63Z" fill="#AF1E1E" fill-opacity="0.3"/>
<path d="M21 63C34.2548 63 45 73.7452 45 87C45 100.255 34.2548 111 21 111C7.74517 111 -3 100.255 -3 87C-3 73.7452 7.74517 63 21 63Z" stroke="#E5E7EB"/>
<path fill-rule="evenodd" clip-rule="evenodd" d="M21.5942 97.2579L21.5822 97.2599L21.5112 97.2949L21.4912 97.2989L21.4772 97.2949L21.4062 97.2589C21.3955 97.2563 21.3875 97.2583 21.3822 97.2649L21.3782 97.2749L21.3612 97.7029L21.3662 97.7229L21.3762 97.7359L21.4802 97.8099L21.4952 97.8139L21.5072 97.8099L21.6112 97.7359L21.6232 97.7199L21.6272 97.7029L21.6102 97.2759C21.6075 97.2653 21.6022 97.2593 21.5942 97.2579ZM21.8582 97.1449L21.8442 97.1469L21.6602 97.2399L21.6502 97.2499L21.6472 97.2609L21.6652 97.6909L21.6702 97.7029L21.6782 97.7109L21.8792 97.8029C21.8918 97.8063 21.9015 97.8036 21.9082 97.7949L21.9122 97.7809L21.8782 97.1669C21.8748 97.1543 21.8682 97.1469 21.8582 97.1449ZM21.1432 97.1469C21.1388 97.1443 21.1335 97.1434 21.1285 97.1445C21.1234 97.1456 21.119 97.1487 21.1162 97.1529L21.1102 97.1669L21.0762 97.7809C21.0768 97.7929 21.0825 97.8009 21.0932 97.8049L21.1082 97.8029L21.3092 97.7099L21.3192 97.7019L21.3222 97.6909L21.3402 97.2609L21.3372 97.2489L21.3272 97.2389L21.1432 97.1469Z" fill="#EF4444"/>
<path d="M21 97C19.6167 97 18.3167 96.7373 17.1 96.212C15.8833 95.6867 14.825 94.9743 13.925 94.075C13.025 93.1757 12.3127 92.1173 11.788 90.9C11.2633 89.6827 11.0007 88.3827 11 87C10.9993 85.6173 11.262 84.3173 11.788 83.1C12.314 81.8827 13.0263 80.8243 13.925 79.925C14.8237 79.0257 15.882 78.3133 17.1 77.788C18.318 77.2627 19.618 77 21 77C22.382 77 23.682 77.2627 24.9 77.788C26.118 78.3133 27.1763 79.0257 28.075 79.925C28.9737 80.8243 29.6863 81.8827 30.213 83.1C30.7397 84.3173 31.002 85.6173 31 87C30.998 88.3827 30.7353 89.6827 30.212 90.9C29.6887 92.1173 28.9763 93.1757 28.075 94.075C27.1737 94.9743 26.1153 95.687 24.9 96.213C23.6847 96.739 22.3847 97.0013 21 97ZM16.45 87.6L20.025 85L16.45 82.4L15.55 83.6L17.475 85L15.55 86.4L16.45 87.6ZM19.5 92.05L21 90.55L22.5 92.05L24 90.55L24.975 91.525L26.025 90.475L24 88.45L22.5 89.95L21 88.45L19.5 89.95L18 88.45L15.975 90.475L17.025 91.525L18 90.55L19.5 92.05ZM25.55 87.6L26.45 86.4L24.525 85L26.45 83.6L25.55 82.4L21.975 85L25.55 87.6Z" fill="#AF1E1E"/>
<path d="M62 0C75.2548 0 86 10.7452 86 24C86 37.2548 75.2548 48 62 48C48.7452 48 38 37.2548 38 24C38 10.7452 48.7452 0 62 0Z" fill="#4DB6AC" fill-opacity="0.3"/>
<path d="M62 0C75.2548 0 86 10.7452 86 24C86 37.2548 75.2548 48 62 48C48.7452 48 38 37.2548 38 24C38 10.7452 48.7452 0 62 0Z" stroke="#E5E7EB"/>
<path fill-rule="evenodd" clip-rule="evenodd" d="M62.5942 34.2579L62.5822 34.2599L62.5112 34.2949L62.4912 34.2989L62.4772 34.2949L62.4062 34.2589C62.3955 34.2563 62.3875 34.2583 62.3822 34.2649L62.3782 34.2749L62.3612 34.7029L62.3662 34.7229L62.3762 34.7359L62.4802 34.8099L62.4952 34.8139L62.5072 34.8099L62.6112 34.7359L62.6232 34.7199L62.6272 34.7029L62.6102 34.2759C62.6075 34.2653 62.6022 34.2593 62.5942 34.2579ZM62.8582 34.1449L62.8442 34.1469L62.6602 34.2399L62.6502 34.2499L62.6472 34.2609L62.6652 34.6909L62.6702 34.7029L62.6782 34.7109L62.8792 34.8029C62.8918 34.8063 62.9015 34.8036 62.9082 34.7949L62.9122 34.7809L62.8782 34.1669C62.8748 34.1543 62.8682 34.1469 62.8582 34.1449ZM62.1432 34.1469C62.1388 34.1443 62.1335 34.1434 62.1285 34.1445C62.1234 34.1456 62.119 34.1487 62.1162 34.1529L62.1102 34.1669L62.0762 34.7809C62.0768 34.7929 62.0825 34.8009 62.0932 34.8049L62.1082 34.8029L62.3092 34.7099L62.3192 34.7019L62.3222 34.6909L62.3402 34.2609L62.3372 34.2489L62.3272 34.2389L62.1432 34.1469Z" fill="#EF4444"/>
<path d="M62 29.5C62.5667 29.5 63.1 29.396 63.6 29.188C64.1 28.98 64.5667 28.684 65 28.3C65.15 28.1667 65.225 27.9917 65.225 27.775C65.225 27.5583 65.15 27.3833 65 27.25C64.85 27.1167 64.671 27.05 64.463 27.05C64.255 27.05 64.0673 27.1167 63.9 27.25C63.6167 27.4667 63.3167 27.6417 63 27.775C62.6833 27.9083 62.35 27.975 62 27.975C61.65 27.975 61.3167 27.9083 61 27.775C60.6833 27.6417 60.3833 27.4667 60.1 27.25C59.9333 27.1167 59.746 27.05 59.538 27.05C59.33 27.05 59.1507 27.1167 59 27.25C58.8493 27.3833 58.7743 27.5583 58.775 27.775C58.7757 27.9917 58.8507 28.1667 59 28.3C59.4333 28.6667 59.9 28.9583 60.4 29.175C60.9 29.3917 61.4333 29.5 62 29.5ZM62 34C60.6167 34 59.3167 33.7373 58.1 33.212C56.8833 32.6867 55.825 31.9743 54.925 31.075C54.025 30.1757 53.3127 29.1173 52.788 27.9C52.2633 26.6827 52.0007 25.3827 52 24C51.9993 22.6173 52.262 21.3173 52.788 20.1C53.314 18.8827 54.0263 17.8243 54.925 16.925C55.8237 16.0257 56.882 15.3133 58.1 14.788C59.318 14.2627 60.618 14 62 14C63.382 14 64.682 14.2627 65.9 14.788C67.118 15.3133 68.1763 16.0257 69.075 16.925C69.9737 17.8243 70.6863 18.8827 71.213 20.1C71.7397 21.3173 72.002 22.6173 72 24C71.998 25.3827 71.7353 26.6827 71.212 27.9C70.6887 29.1173 69.9763 30.1757 69.075 31.075C68.1737 31.9743 67.1153 32.687 65.9 33.213C64.6847 33.739 63.3847 34.0013 62 34ZM58.5 24C59.0667 24 59.5667 23.8167 60 23.45C60.4333 23.0833 60.7667 22.6333 61 22.1C61.0833 21.9167 61.0707 21.7417 60.962 21.575C60.8533 21.4083 60.6993 21.3 60.5 21.25C60.3167 21.2 60.1333 21.221 59.95 21.313C59.7667 21.405 59.6333 21.5423 59.55 21.725C59.4333 21.9417 59.2877 22.125 59.113 22.275C58.9383 22.425 58.734 22.5 58.5 22.5C58.266 22.5 58.0577 22.421 57.875 22.263C57.6923 22.105 57.5507 21.9173 57.45 21.7C57.3667 21.5167 57.2333 21.3833 57.05 21.3C56.8667 21.2167 56.6833 21.2 56.5 21.25C56.3 21.3 56.146 21.4043 56.038 21.563C55.93 21.7217 55.9173 21.8923 56 22.075C56.2333 22.6083 56.5627 23.0627 56.988 23.438C57.4133 23.8133 57.9173 24.0007 58.5 24ZM65.5 24C66.0667 24 66.5667 23.8167 67 23.45C67.4333 23.0833 67.7667 22.6333 68 22.1C68.0833 21.9167 68.0707 21.7417 67.962 21.575C67.8533 21.4083 67.6993 21.3 67.5 21.25C67.3167 21.2 67.1333 21.221 66.95 21.313C66.7667 21.405 66.6333 21.5423 66.55 21.725C66.4333 21.9417 66.2877 22.125 66.113 22.275C65.9383 22.425 65.734 22.5 65.5 22.5C65.266 22.5 65.0577 22.421 64.875 22.263C64.6923 22.105 64.5507 21.9173 64.45 21.7C64.3667 21.5167 64.2333 21.3833 64.05 21.3C63.8667 21.2167 63.6833 21.2 63.5 21.25C63.3 21.3 63.1457 21.4043 63.037 21.563C62.9283 21.7217 62.916 21.8923 63 22.075C63.2333 22.6083 63.5627 23.0627 63.988 23.438C64.4133 23.8133 64.9173 24.0007 65.5 24Z" fill="#4DB6AC"/>
<path d="M122 55C135.255 55 146 65.7452 146 79C146 92.2548 135.255 103 122 103C108.745 103 98 92.2548 98 79C98 65.7452 108.745 55 122 55Z" fill="#FF8000" fill-opacity="0.3"/>
<path d="M122 55C135.255 55 146 65.7452 146 79C146 92.2548 135.255 103 122 103C108.745 103 98 92.2548 98 79C98 65.7452 108.745 55 122 55Z" stroke="#E5E7EB"/>
<path fill-rule="evenodd" clip-rule="evenodd" d="M122.594 89.2579L122.582 89.2599L122.511 89.2949L122.491 89.2989L122.477 89.2949L122.406 89.2589C122.396 89.2563 122.388 89.2583 122.382 89.2649L122.378 89.2749L122.361 89.7029L122.366 89.7229L122.376 89.7359L122.48 89.8099L122.495 89.8139L122.507 89.8099L122.611 89.7359L122.623 89.7199L122.627 89.7029L122.61 89.2759C122.608 89.2653 122.602 89.2593 122.594 89.2579ZM122.858 89.1449L122.844 89.1469L122.66 89.2399L122.65 89.2499L122.647 89.2609L122.665 89.6909L122.67 89.7029L122.678 89.7109L122.879 89.8029C122.892 89.8063 122.902 89.8036 122.908 89.7949L122.912 89.7809L122.878 89.1669C122.875 89.1543 122.868 89.1469 122.858 89.1449ZM122.143 89.1469C122.139 89.1443 122.133 89.1434 122.128 89.1445C122.123 89.1456 122.119 89.1487 122.116 89.1529L122.11 89.1669L122.076 89.7809C122.077 89.7929 122.083 89.8009 122.093 89.8049L122.108 89.8029L122.309 89.7099L122.319 89.7019L122.322 89.6909L122.34 89.2609L122.337 89.2489L122.327 89.2389L122.143 89.1469Z" fill="#EF4444"/>
<g clip-path="url(#clip3_2142_610)">
<path d="M122 89C124.652 89 127.196 87.9464 129.071 86.0711C130.946 84.1957 132 81.6522 132 79C132 76.3478 130.946 73.8043 129.071 71.9289C127.196 70.0536 124.652 69 122 69C119.348 69 116.804 70.0536 114.929 71.9289C113.054 73.8043 112 76.3478 112 79C112 81.6522 113.054 84.1957 114.929 86.0711C116.804 87.9464 119.348 89 122 89ZM118.434 81.8398C119.293 80.9805 120.539 80.25 122 80.25C123.461 80.25 124.707 80.9805 125.566 81.8398C126 82.2734 126.352 82.7539 126.598 83.2227C126.84 83.6797 127 84.1758 127 84.625C127 84.8281 126.898 85.0234 126.73 85.1406C126.562 85.2578 126.348 85.2852 126.156 85.2109L125.355 84.9102C124.305 84.5156 123.188 84.3125 122.062 84.3125H121.938C120.812 84.3125 119.699 84.5156 118.645 84.9102L117.844 85.2109C117.652 85.2812 117.438 85.2578 117.27 85.1406C117.102 85.0234 117 84.8281 117 84.625C117 84.1719 117.164 83.6797 117.402 83.2227C117.648 82.7539 118 82.2734 118.434 81.8398ZM116.789 75.2188C116.965 74.9531 117.309 74.8594 117.594 75.0039L120.703 76.5664C120.914 76.6719 121.047 76.8867 121.047 77.125C121.047 77.3633 120.914 77.5781 120.703 77.6836L117.594 79.2461C117.309 79.3867 116.965 79.2969 116.789 79.0312C116.613 78.7656 116.668 78.4102 116.91 78.207L118.211 77.125L116.914 76.043C116.672 75.8398 116.617 75.4844 116.793 75.2188H116.789ZM127.086 76.043L125.789 77.125L127.086 78.207C127.328 78.4102 127.383 78.7656 127.207 79.0312C127.031 79.2969 126.688 79.3906 126.402 79.2461L123.293 77.6836C123.082 77.5781 122.949 77.3633 122.949 77.125C122.949 76.8867 123.082 76.6719 123.293 76.5664L126.402 75.0039C126.688 74.8633 127.031 74.9531 127.207 75.2188C127.383 75.4844 127.328 75.8398 127.086 76.043Z" fill="#FF8000"/>
</g>
</g>
<defs>
<clipPath id="clip0_2142_610">
<rect width="125" height="125" rx="62.5" fill="white"/>
</clipPath>
<clipPath id="clip1_2142_610">
<rect width="20" height="20" fill="white" transform="translate(57 65)"/>
</clipPath>
<clipPath id="clip2_2142_610">
<path d="M14 33.5H34V53.5H14V33.5Z" fill="white"/>
</clipPath>
<clipPath id="clip3_2142_610">
<rect width="20" height="20" fill="white" transform="translate(112 69)"/>
</clipPath>
</defs>
</svg>
