<svg width="32" height="32" viewBox="0 0 32 32" fill="none" xmlns="http://www.w3.org/2000/svg">
<path d="M26.5066 24.6266C27.1466 23.5999 27.5066 22.4 27.4266 21.08C27.2533 18.2133 24.9733 15.7866 22.1333 15.4799C21.2925 15.3821 20.4406 15.4633 19.6334 15.7182C18.8262 15.9731 18.0821 16.3958 17.4499 16.9587C16.8178 17.5217 16.3118 18.2119 15.9654 18.9843C15.619 19.7566 15.44 20.5935 15.44 21.4399C15.44 24.7599 18.12 27.4399 21.4266 27.4399C22.6 27.4399 23.6933 27.0933 24.6133 26.5066L27.8266 29.7199C28.3466 30.2399 29.2 30.2399 29.72 29.7199C30.24 29.1999 30.24 28.3466 29.72 27.8266L26.5066 24.6266ZM21.44 24.7733C20.5559 24.7733 19.7081 24.4221 19.083 23.797C18.4578 23.1719 18.1066 22.324 18.1066 21.4399C18.1066 20.5559 18.4578 19.708 19.083 19.0829C19.7081 18.4578 20.5559 18.1066 21.44 18.1066C22.324 18.1066 23.1719 18.4578 23.797 19.0829C24.4221 19.708 24.7733 20.5559 24.7733 21.4399C24.7733 22.324 24.4221 23.1719 23.797 23.797C23.1719 24.4221 22.324 24.7733 21.44 24.7733ZM20.96 13.4399C19.9733 13.4666 19.0266 13.6799 18.16 14.0399L17.4266 12.9333L13.32 19.6133C13.2103 19.7922 13.0598 19.9427 12.881 20.0525C12.7021 20.1623 12.4999 20.2283 12.2907 20.2452C12.0815 20.2621 11.8712 20.2294 11.6771 20.1497C11.4829 20.07 11.3103 19.9456 11.1733 19.7866L8.34665 16.4933L4.26665 23.0266C3.85331 23.68 2.97331 23.8533 2.34665 23.3999C1.78665 22.9866 1.62665 22.2133 1.99998 21.6133L7.03998 13.5466C7.51998 12.7866 8.59998 12.7066 9.18665 13.3866L12 16.6666L16.24 9.77328C16.3566 9.58278 16.5193 9.42475 16.7132 9.31383C16.907 9.2029 17.1257 9.14266 17.349 9.13867C17.5723 9.13468 17.793 9.18708 17.9907 9.29102C18.1884 9.39495 18.3567 9.54706 18.48 9.73328L20.96 13.4399ZM24.4133 14.1066C23.56 13.7333 22.64 13.5066 21.68 13.4533L27.7333 3.86662C28.1466 3.21328 29.0266 3.05328 29.64 3.50662C30.2133 3.91995 30.36 4.70662 29.9866 5.29328L24.4133 14.1066Z" fill="#00BFA6"/>
</svg>
