<svg width="18" height="19" viewBox="0 0 18 19" fill="none" xmlns="http://www.w3.org/2000/svg">
<path d="M9.65861 0.351953C9.51095 0.285156 9.35275 0.25 9.18752 0.25C9.02228 0.25 8.86408 0.285156 8.71642 0.351953L2.0965 3.16094C1.32306 3.48789 0.7465 4.25078 0.750016 5.17188C0.767594 8.65938 2.20197 15.0402 8.25939 17.9406C8.8465 18.2219 9.52853 18.2219 10.1156 17.9406C16.1731 15.0402 17.6074 8.65938 17.625 5.17188C17.6285 4.25078 17.052 3.48789 16.2785 3.16094L9.65861 0.351953ZM5.25002 8.03008C5.25002 6.8418 6.2133 5.875 7.40509 5.875C7.97463 5.875 8.52306 6.10352 8.92736 6.5043L9.18752 6.76445L9.44767 6.5043C9.85197 6.1 10.4004 5.875 10.9699 5.875C12.1582 5.875 13.125 6.83828 13.125 8.03008C13.125 8.59961 12.8965 9.14805 12.4957 9.55234L9.5883 12.4598C9.37033 12.6777 9.01173 12.6777 8.79377 12.4598L5.88634 9.55234C5.48205 9.14805 5.25705 8.59961 5.25705 8.03008H5.25002Z" fill="white"/>
</svg>
