<svg width="23" height="22" viewBox="0 0 23 22" fill="none" xmlns="http://www.w3.org/2000/svg">
<path d="M19.5795 16.9399C20.0867 16.1264 20.3719 15.1755 20.3085 14.1295C20.1712 11.8579 18.3645 9.93502 16.114 9.69202C15.4478 9.61451 14.7727 9.67885 14.1331 9.88081C13.4934 10.0828 12.9038 10.4178 12.4029 10.8638C11.9019 11.3099 11.501 11.8569 11.2265 12.4689C10.952 13.0809 10.8101 13.744 10.8102 14.4148C10.8102 17.0456 12.9338 19.1692 15.5541 19.1692C16.4838 19.1692 17.3502 18.8945 18.0792 18.4297L20.6255 20.9759C21.0376 21.388 21.7137 21.388 22.1258 20.9759C22.5379 20.5639 22.5379 19.8877 22.1258 19.4756L19.5795 16.9399ZM15.5646 17.0562C14.8641 17.0562 14.1923 16.7779 13.6969 16.2825C13.2016 15.7872 12.9233 15.1153 12.9233 14.4148C12.9233 13.7142 13.2016 13.0424 13.6969 12.5471C14.1923 12.0517 14.8641 11.7734 15.5646 11.7734C16.2652 11.7734 16.937 12.0517 17.4324 12.5471C17.9277 13.0424 18.206 13.7142 18.206 14.4148C18.206 15.1153 17.9277 15.7872 17.4324 16.2825C16.937 16.7779 16.2652 17.0562 15.5646 17.0562ZM15.1843 8.0755C14.4024 8.09663 13.6523 8.26568 12.9655 8.55094L12.3844 7.67401L9.13026 12.9673C9.04331 13.1091 8.92413 13.2283 8.7824 13.3153C8.64067 13.4024 8.4804 13.4547 8.31463 13.4681C8.14886 13.4815 7.98227 13.4555 7.82841 13.3924C7.67456 13.3292 7.53778 13.2307 7.42922 13.1047L5.18934 10.495L1.9563 15.6721C1.62877 16.1898 0.931449 16.3271 0.434871 15.9679C-0.0088789 15.6404 -0.135665 15.0276 0.160169 14.5521L4.15392 8.16002C4.53428 7.55779 5.39008 7.4944 5.85496 8.03324L8.08428 10.6323L11.4441 5.16999C11.5365 5.01903 11.6654 4.89381 11.819 4.80591C11.9727 4.71802 12.146 4.67028 12.3229 4.66712C12.4999 4.66396 12.6747 4.70548 12.8314 4.78784C12.988 4.8702 13.1214 4.99073 13.2191 5.1383L15.1843 8.0755ZM17.9207 8.60377C17.2445 8.30794 16.5155 8.12833 15.7548 8.08606L20.5515 0.489485C20.8791 -0.0282238 21.5764 -0.155009 22.0624 0.204217C22.5167 0.531747 22.6329 1.15511 22.3371 1.61999L17.9207 8.60377Z" fill="white"/>
</svg>
