<svg width="23" height="28" viewBox="0 0 23 28" fill="none" xmlns="http://www.w3.org/2000/svg">
<path d="M22.9062 28H0.40625V0H22.9062V28Z" stroke="#E5E7EB"/>
<g clip-path="url(#clip0_2003_1702)">
<path d="M5.46875 4.25C6.21467 4.25 6.93004 4.54632 7.45749 5.07376C7.98493 5.60121 8.28125 6.31658 8.28125 7.0625C8.28125 7.80842 7.98493 8.52379 7.45749 9.05124C6.93004 9.57868 6.21467 9.875 5.46875 9.875C4.72283 9.875 4.00746 9.57868 3.48001 9.05124C2.95257 8.52379 2.65625 7.80842 2.65625 7.0625C2.65625 6.31658 2.95257 5.60121 3.48001 5.07376C4.00746 4.54632 4.72283 4.25 5.46875 4.25ZM18.4062 4.25C19.1522 4.25 19.8675 4.54632 20.395 5.07376C20.9224 5.60121 21.2188 6.31658 21.2188 7.0625C21.2188 7.80842 20.9224 8.52379 20.395 9.05124C19.8675 9.57868 19.1522 9.875 18.4062 9.875C17.6603 9.875 16.945 9.57868 16.4175 9.05124C15.8901 8.52379 15.5938 7.80842 15.5938 7.0625C15.5938 6.31658 15.8901 5.60121 16.4175 5.07376C16.945 4.54632 17.6603 4.25 18.4062 4.25ZM0.40625 14.7512C0.40625 12.6805 2.08672 11 4.15742 11H5.65859C6.21758 11 6.74844 11.123 7.22656 11.341C7.18086 11.5941 7.15977 11.8578 7.15977 12.125C7.15977 13.468 7.75039 14.6738 8.68203 15.5C8.675 15.5 8.66797 15.5 8.65742 15.5H1.15508C0.74375 15.5 0.40625 15.1625 0.40625 14.7512ZM14.6551 15.5C14.648 15.5 14.641 15.5 14.6305 15.5C15.5656 14.6738 16.1527 13.468 16.1527 12.125C16.1527 11.8578 16.1281 11.5977 16.0859 11.341C16.5641 11.1195 17.0949 11 17.6539 11H19.1551C21.2258 11 22.9062 12.6805 22.9062 14.7512C22.9062 15.166 22.5688 15.5 22.1574 15.5H14.6551ZM8.28125 12.125C8.28125 11.2299 8.63683 10.3714 9.26976 9.73851C9.9027 9.10558 10.7611 8.75 11.6562 8.75C12.5514 8.75 13.4098 9.10558 14.0427 9.73851C14.6757 10.3714 15.0312 11.2299 15.0312 12.125C15.0312 13.0201 14.6757 13.8786 14.0427 14.5115C13.4098 15.1444 12.5514 15.5 11.6562 15.5C10.7611 15.5 9.9027 15.1444 9.26976 14.5115C8.63683 13.8786 8.28125 13.0201 8.28125 12.125ZM4.90625 21.3113C4.90625 18.7238 7.00508 16.625 9.59258 16.625H13.7199C16.3074 16.625 18.4062 18.7238 18.4062 21.3113C18.4062 21.8281 17.9879 22.25 17.4676 22.25H5.84492C5.32812 22.25 4.90625 21.8316 4.90625 21.3113Z" fill="white"/>
</g>
<defs>
<clipPath id="clip0_2003_1702">
<path d="M0.40625 4.25H22.9062V22.25H0.40625V4.25Z" fill="white"/>
</clipPath>
</defs>
</svg>
