<svg width="23" height="19" viewBox="0 0 23 19" fill="none" xmlns="http://www.w3.org/2000/svg">
<g clip-path="url(#clip0_2003_1703)">
<path d="M5.46875 0.25C6.21467 0.25 6.93004 0.546316 7.45749 1.07376C7.98493 1.60121 8.28125 2.31658 8.28125 3.0625C8.28125 3.80842 7.98493 4.52379 7.45749 5.05124C6.93004 5.57868 6.21467 5.875 5.46875 5.875C4.72283 5.875 4.00746 5.57868 3.48001 5.05124C2.95257 4.52379 2.65625 3.80842 2.65625 3.0625C2.65625 2.31658 2.95257 1.60121 3.48001 1.07376C4.00746 0.546316 4.72283 0.25 5.46875 0.25ZM18.4062 0.25C19.1522 0.25 19.8675 0.546316 20.395 1.07376C20.9224 1.60121 21.2188 2.31658 21.2188 3.0625C21.2188 3.80842 20.9224 4.52379 20.395 5.05124C19.8675 5.57868 19.1522 5.875 18.4062 5.875C17.6603 5.875 16.945 5.57868 16.4175 5.05124C15.8901 4.52379 15.5938 3.80842 15.5938 3.0625C15.5938 2.31658 15.8901 1.60121 16.4175 1.07376C16.945 0.546316 17.6603 0.25 18.4062 0.25ZM0.40625 10.7512C0.40625 8.68047 2.08672 7 4.15742 7H5.65859C6.21758 7 6.74844 7.12305 7.22656 7.34102C7.18086 7.59414 7.15977 7.85781 7.15977 8.125C7.15977 9.46797 7.75039 10.6738 8.68203 11.5C8.675 11.5 8.66797 11.5 8.65742 11.5H1.15508C0.74375 11.5 0.40625 11.1625 0.40625 10.7512ZM14.6551 11.5C14.648 11.5 14.641 11.5 14.6305 11.5C15.5656 10.6738 16.1527 9.46797 16.1527 8.125C16.1527 7.85781 16.1281 7.59766 16.0859 7.34102C16.5641 7.11953 17.0949 7 17.6539 7H19.1551C21.2258 7 22.9062 8.68047 22.9062 10.7512C22.9062 11.166 22.5688 11.5 22.1574 11.5H14.6551ZM8.28125 8.125C8.28125 7.22989 8.63683 6.37145 9.26976 5.73851C9.9027 5.10558 10.7611 4.75 11.6562 4.75C12.5514 4.75 13.4098 5.10558 14.0427 5.73851C14.6757 6.37145 15.0312 7.22989 15.0312 8.125C15.0312 9.02011 14.6757 9.87855 14.0427 10.5115C13.4098 11.1444 12.5514 11.5 11.6562 11.5C10.7611 11.5 9.9027 11.1444 9.26976 10.5115C8.63683 9.87855 8.28125 9.02011 8.28125 8.125ZM4.90625 17.3113C4.90625 14.7238 7.00508 12.625 9.59258 12.625H13.7199C16.3074 12.625 18.4062 14.7238 18.4062 17.3113C18.4062 17.8281 17.9879 18.25 17.4676 18.25H5.84492C5.32812 18.25 4.90625 17.8316 4.90625 17.3113Z" fill="white"/>
</g>
<defs>
<clipPath id="clip0_2003_1703">
<path d="M0.40625 0.25H22.9062V18.25H0.40625V0.25Z" fill="white"/>
</clipPath>
</defs>
</svg>
