<svg width="48" height="48" viewBox="0 0 48 48" fill="none" xmlns="http://www.w3.org/2000/svg">
<path d="M24 0C37.2548 0 48 10.7452 48 24C48 37.2548 37.2548 48 24 48C10.7452 48 0 37.2548 0 24C0 10.7452 10.7452 0 24 0Z" fill="#FF8000" fill-opacity="0.3"/>
<path d="M24 0C37.2548 0 48 10.7452 48 24C48 37.2548 37.2548 48 24 48C10.7452 48 0 37.2548 0 24C0 10.7452 10.7452 0 24 0Z" stroke="#E5E7EB"/>
<path fill-rule="evenodd" clip-rule="evenodd" d="M24.594 34.258L24.582 34.26L24.511 34.295L24.491 34.299L24.477 34.295L24.406 34.259C24.3954 34.2563 24.3874 34.2583 24.382 34.265L24.378 34.275L24.361 34.703L24.366 34.723L24.376 34.736L24.48 34.81L24.495 34.814L24.507 34.81L24.611 34.736L24.623 34.72L24.627 34.703L24.61 34.276C24.6074 34.2653 24.602 34.2593 24.594 34.258ZM24.858 34.145L24.844 34.147L24.66 34.24L24.65 34.25L24.647 34.261L24.665 34.691L24.67 34.703L24.6781 34.711L24.879 34.803C24.8917 34.8063 24.9014 34.8037 24.908 34.795L24.912 34.781L24.878 34.167C24.8747 34.1543 24.868 34.147 24.858 34.145ZM24.143 34.147C24.1386 34.1443 24.1334 34.1435 24.1283 34.1446C24.1233 34.1457 24.1189 34.1487 24.116 34.153L24.11 34.167L24.076 34.781C24.0767 34.793 24.0824 34.801 24.0931 34.805L24.108 34.803L24.309 34.71L24.319 34.702L24.322 34.691L24.34 34.261L24.337 34.249L24.327 34.239L24.143 34.147Z" fill="#EF4444"/>
<g clip-path="url(#clip0_2003_384)">
<path d="M24 34C26.6522 34 29.1957 32.9464 31.0711 31.0711C32.9464 29.1957 34 26.6522 34 24C34 21.3478 32.9464 18.8043 31.0711 16.9289C29.1957 15.0536 26.6522 14 24 14C21.3478 14 18.8043 15.0536 16.9289 16.9289C15.0536 18.8043 14 21.3478 14 24C14 26.6522 15.0536 29.1957 16.9289 31.0711C18.8043 32.9464 21.3478 34 24 34ZM20.4336 26.8398C21.293 25.9805 22.5391 25.25 24 25.25C25.4609 25.25 26.707 25.9805 27.5664 26.8398C28 27.2734 28.3516 27.7539 28.5977 28.2227C28.8398 28.6797 29 29.1758 29 29.625C29 29.8281 28.8984 30.0234 28.7305 30.1406C28.5625 30.2578 28.3477 30.2852 28.1562 30.2109L27.3555 29.9102C26.3047 29.5156 25.1875 29.3125 24.0625 29.3125H23.9375C22.8125 29.3125 21.6992 29.5156 20.6445 29.9102L19.8438 30.2109C19.6523 30.2812 19.4375 30.2578 19.2695 30.1406C19.1016 30.0234 19 29.8281 19 29.625C19 29.1719 19.1641 28.6797 19.4023 28.2227C19.6484 27.7539 20 27.2734 20.4336 26.8398ZM18.7891 20.2188C18.9648 19.9531 19.3086 19.8594 19.5938 20.0039L22.7031 21.5664C22.9141 21.6719 23.0469 21.8867 23.0469 22.125C23.0469 22.3633 22.9141 22.5781 22.7031 22.6836L19.5938 24.2461C19.3086 24.3867 18.9648 24.2969 18.7891 24.0312C18.6133 23.7656 18.668 23.4102 18.9102 23.207L20.2109 22.125L18.9141 21.043C18.6719 20.8398 18.6172 20.4844 18.793 20.2188H18.7891ZM29.0859 21.043L27.7891 22.125L29.0859 23.207C29.3281 23.4102 29.3828 23.7656 29.207 24.0312C29.0312 24.2969 28.6875 24.3906 28.4023 24.2461L25.293 22.6836C25.082 22.5781 24.9492 22.3633 24.9492 22.125C24.9492 21.8867 25.082 21.6719 25.293 21.5664L28.4023 20.0039C28.6875 19.8633 29.0312 19.9531 29.207 20.2188C29.3828 20.4844 29.3281 20.8398 29.0859 21.043Z" fill="#FF8000"/>
</g>
<defs>
<clipPath id="clip0_2003_384">
<rect width="20" height="20" fill="white" transform="translate(14 14)"/>
</clipPath>
</defs>
</svg>
