<svg width="48" height="48" viewBox="0 0 48 48" fill="none" xmlns="http://www.w3.org/2000/svg">
<path d="M24 0C37.2548 0 48 10.7452 48 24C48 37.2548 37.2548 48 24 48C10.7452 48 0 37.2548 0 24C0 10.7452 10.7452 0 24 0Z" fill="#F44336" fill-opacity="0.3"/>
<path d="M24 0C37.2548 0 48 10.7452 48 24C48 37.2548 37.2548 48 24 48C10.7452 48 0 37.2548 0 24C0 10.7452 10.7452 0 24 0Z" stroke="#E5E7EB"/>
<path fill-rule="evenodd" clip-rule="evenodd" d="M24 13C29.523 13 34 17.477 34 23C34 28.523 29.523 33 24 33C18.477 33 14 28.523 14 23C14 17.477 18.477 13 24 13ZM24 24C22.7822 24 21.6063 24.4445 20.693 25.25C20.4941 25.4254 20.373 25.6727 20.3564 25.9374C20.3398 26.2021 20.4291 26.4626 20.6045 26.6615C20.7799 26.8604 21.0272 26.9815 21.2919 26.9981C21.5566 27.0147 21.8171 26.9254 22.016 26.75C22.5639 26.2668 23.2694 26.0001 24 26C24.7309 25.9982 25.437 26.2651 25.984 26.75C26.1829 26.9256 26.4434 27.0149 26.7082 26.9984C26.973 26.9819 27.2204 26.8609 27.396 26.662C27.5716 26.4631 27.6609 26.2026 27.6444 25.9378C27.6279 25.673 27.5069 25.4256 27.308 25.25C26.3944 24.4443 25.2181 23.9998 24 24ZM19.106 19.553C18.9876 19.7901 18.9681 20.0646 19.052 20.316C19.1358 20.5675 19.316 20.7754 19.553 20.894L21.553 21.894C21.6709 21.9576 21.8003 21.9968 21.9337 22.0094C22.067 22.022 22.2015 22.0077 22.3292 21.9673C22.4569 21.9269 22.5751 21.8613 22.677 21.7743C22.7788 21.6874 22.8622 21.5808 22.9221 21.461C22.982 21.3412 23.0172 21.2107 23.0256 21.077C23.0341 20.9433 23.0156 20.8094 22.9713 20.683C22.927 20.5566 22.8578 20.4404 22.7677 20.3413C22.6776 20.2422 22.5686 20.1622 22.447 20.106L20.447 19.106C20.2099 18.9876 19.9354 18.9681 19.684 19.052C19.4325 19.1358 19.2246 19.316 19.106 19.553ZM27.553 19.106L25.553 20.106C25.4314 20.1622 25.3224 20.2422 25.2323 20.3413C25.1422 20.4404 25.073 20.5566 25.0287 20.683C24.9844 20.8094 24.9659 20.9433 24.9744 21.077C24.9828 21.2107 25.018 21.3412 25.0779 21.461C25.1378 21.5808 25.2212 21.6874 25.323 21.7743C25.4249 21.8613 25.5431 21.9269 25.6708 21.9673C25.7985 22.0077 25.933 22.022 26.0663 22.0094C26.1997 21.9968 26.3291 21.9576 26.447 21.894L28.447 20.894C28.5686 20.8378 28.6776 20.7578 28.7677 20.6587C28.8578 20.5596 28.927 20.4434 28.9713 20.317C29.0156 20.1906 29.0341 20.0567 29.0256 19.923C29.0172 19.7893 28.982 19.6588 28.9221 19.539C28.8622 19.4192 28.7788 19.3126 28.677 19.2257C28.5751 19.1387 28.4569 19.0731 28.3292 19.0327C28.2015 18.9923 28.067 18.978 27.9337 18.9906C27.8003 19.0032 27.6709 19.0424 27.553 19.106Z" fill="#F44336"/>
</svg>
