<svg width="48" height="48" viewBox="0 0 48 48" fill="none" xmlns="http://www.w3.org/2000/svg">
<path d="M24 0C37.2548 0 48 10.7452 48 24C48 37.2548 37.2548 48 24 48C10.7452 48 0 37.2548 0 24C0 10.7452 10.7452 0 24 0Z" fill="#9E9E9E" fill-opacity="0.3"/>
<path d="M24 0C37.2548 0 48 10.7452 48 24C48 37.2548 37.2548 48 24 48C10.7452 48 0 37.2548 0 24C0 10.7452 10.7452 0 24 0Z" stroke="#E5E7EB"/>
<path fill-rule="evenodd" clip-rule="evenodd" d="M24.594 34.258L24.582 34.26L24.511 34.295L24.491 34.299L24.477 34.295L24.406 34.259C24.3954 34.2563 24.3874 34.2583 24.382 34.265L24.378 34.275L24.361 34.703L24.366 34.723L24.376 34.736L24.48 34.81L24.495 34.814L24.507 34.81L24.611 34.736L24.623 34.72L24.627 34.703L24.61 34.276C24.6074 34.2653 24.602 34.2593 24.594 34.258ZM24.858 34.145L24.844 34.147L24.66 34.24L24.65 34.25L24.647 34.261L24.665 34.691L24.67 34.703L24.6781 34.711L24.879 34.803C24.8917 34.8063 24.9014 34.8037 24.908 34.795L24.912 34.781L24.878 34.167C24.8747 34.1543 24.868 34.147 24.858 34.145ZM24.143 34.147C24.1386 34.1443 24.1334 34.1435 24.1283 34.1446C24.1233 34.1457 24.1189 34.1487 24.116 34.153L24.11 34.167L24.076 34.781C24.0767 34.793 24.0824 34.801 24.0931 34.805L24.108 34.803L24.309 34.71L24.319 34.702L24.322 34.691L24.34 34.261L24.337 34.249L24.327 34.239L24.143 34.147Z" fill="#EF4444"/>
<g clip-path="url(#clip0_2003_412)">
<path d="M14 24C14 21.3478 15.0536 18.8043 16.9289 16.9289C18.8043 15.0536 21.3478 14 24 14C26.6522 14 29.1957 15.0536 31.0711 16.9289C32.9464 18.8043 34 21.3478 34 24C34 26.6522 32.9464 29.1957 31.0711 31.0711C29.1957 32.9464 26.6522 34 24 34C21.3478 34 18.8043 32.9464 16.9289 31.0711C15.0536 29.1957 14 26.6522 14 24ZM27.75 21.5C27.75 21.1685 27.6183 20.8505 27.3839 20.6161C27.1495 20.3817 26.8315 20.25 26.5 20.25C26.1685 20.25 25.8505 20.3817 25.6161 20.6161C25.3817 20.8505 25.25 21.1685 25.25 21.5C25.25 21.8315 25.3817 22.1495 25.6161 22.3839C25.8505 22.6183 26.1685 22.75 26.5 22.75C26.8315 22.75 27.1495 22.6183 27.3839 22.3839C27.6183 22.1495 27.75 21.8315 27.75 21.5ZM19.625 26.5C19.625 26.8315 19.7567 27.1495 19.9911 27.3839C20.2255 27.6183 20.5435 27.75 20.875 27.75H27.125C27.4565 27.75 27.7745 27.6183 28.0089 27.3839C28.2433 27.1495 28.375 26.8315 28.375 26.5C28.375 26.1685 28.2433 25.8505 28.0089 25.6161C27.7745 25.3817 27.4565 25.25 27.125 25.25H20.875C20.5435 25.25 20.2255 25.3817 19.9911 25.6161C19.7567 25.8505 19.625 26.1685 19.625 26.5ZM21.5 22.75C21.8315 22.75 22.1495 22.6183 22.3839 22.3839C22.6183 22.1495 22.75 21.8315 22.75 21.5C22.75 21.1685 22.6183 20.8505 22.3839 20.6161C22.1495 20.3817 21.8315 20.25 21.5 20.25C21.1685 20.25 20.8505 20.3817 20.6161 20.6161C20.3817 20.8505 20.25 21.1685 20.25 21.5C20.25 21.8315 20.3817 22.1495 20.6161 22.3839C20.8505 22.6183 21.1685 22.75 21.5 22.75Z" fill="#9E9E9E"/>
</g>
<defs>
<clipPath id="clip0_2003_412">
<rect width="20" height="20" fill="white" transform="translate(14 14)"/>
</clipPath>
</defs>
</svg>
