<svg width="48" height="48" viewBox="0 0 48 48" fill="none" xmlns="http://www.w3.org/2000/svg">
<path d="M24 0C37.2548 0 48 10.7452 48 24C48 37.2548 37.2548 48 24 48C10.7452 48 0 37.2548 0 24C0 10.7452 10.7452 0 24 0Z" fill="#FFC107" fill-opacity="0.3"/>
<path d="M24 0C37.2548 0 48 10.7452 48 24C48 37.2548 37.2548 48 24 48C10.7452 48 0 37.2548 0 24C0 10.7452 10.7452 0 24 0Z" stroke="#E5E7EB"/>
<path fill-rule="evenodd" clip-rule="evenodd" d="M24.594 34.258L24.582 34.26L24.511 34.295L24.491 34.299L24.477 34.295L24.406 34.259C24.3954 34.2563 24.3874 34.2583 24.382 34.265L24.378 34.275L24.361 34.703L24.366 34.723L24.376 34.736L24.48 34.81L24.495 34.814L24.507 34.81L24.611 34.736L24.623 34.72L24.627 34.703L24.61 34.276C24.6074 34.2653 24.602 34.2593 24.594 34.258ZM24.858 34.145L24.844 34.147L24.66 34.24L24.65 34.25L24.647 34.261L24.665 34.691L24.67 34.703L24.6781 34.711L24.879 34.803C24.8917 34.8063 24.9014 34.8037 24.908 34.795L24.912 34.781L24.878 34.167C24.8747 34.1543 24.868 34.147 24.858 34.145ZM24.143 34.147C24.1386 34.1443 24.1334 34.1435 24.1283 34.1446C24.1233 34.1457 24.1189 34.1487 24.116 34.153L24.11 34.167L24.076 34.781C24.0767 34.793 24.0824 34.801 24.0931 34.805L24.108 34.803L24.309 34.71L24.319 34.702L24.322 34.691L24.34 34.261L24.337 34.249L24.327 34.239L24.143 34.147Z" fill="#EF4444"/>
<path fill-rule="evenodd" clip-rule="evenodd" d="M24 14C29.523 14 34 18.477 34 24C34 29.523 29.523 34 24 34C18.477 34 14 29.523 14 24C14 18.477 18.477 14 24 14ZM24 25C22.7822 25 21.6063 25.4445 20.693 26.25C20.4941 26.4254 20.373 26.6727 20.3564 26.9374C20.3398 27.2021 20.4291 27.4626 20.6045 27.6615C20.7799 27.8604 21.0272 27.9815 21.2919 27.9981C21.5566 28.0147 21.8171 27.9254 22.016 27.75C22.5639 27.2668 23.2694 27.0001 24 27C24.7309 26.9982 25.437 27.2651 25.984 27.75C26.1829 27.9256 26.4434 28.0149 26.7082 27.9984C26.973 27.9819 27.2204 27.8609 27.396 27.662C27.5716 27.4631 27.6609 27.2026 27.6444 26.9378C27.6279 26.673 27.5069 26.4256 27.308 26.25C26.3944 25.4443 25.2181 24.9998 24 25ZM20.5 20C20.1022 20 19.7206 20.158 19.4393 20.4393C19.158 20.7206 19 21.1022 19 21.5C19 21.8978 19.158 22.2794 19.4393 22.5607C19.7206 22.842 20.1022 23 20.5 23C20.8978 23 21.2794 22.842 21.5607 22.5607C21.842 22.2794 22 21.8978 22 21.5C22 21.1022 21.842 20.7206 21.5607 20.4393C21.2794 20.158 20.8978 20 20.5 20ZM27.5 20C27.1022 20 26.7206 20.158 26.4393 20.4393C26.158 20.7206 26 21.1022 26 21.5C26 21.8978 26.158 22.2794 26.4393 22.5607C26.7206 22.842 27.1022 23 27.5 23C27.8978 23 28.2794 22.842 28.5607 22.5607C28.842 22.2794 29 21.8978 29 21.5C29 21.1022 28.842 20.7206 28.5607 20.4393C28.2794 20.158 27.8978 20 27.5 20Z" fill="#FFC107"/>
</svg>
