<svg width="48" height="48" viewBox="0 0 48 48" fill="none" xmlns="http://www.w3.org/2000/svg">
<path d="M24 0C37.2548 0 48 10.7452 48 24C48 37.2548 37.2548 48 24 48C10.7452 48 0 37.2548 0 24C0 10.7452 10.7452 0 24 0Z" fill="#22C55E" fill-opacity="0.3"/>
<path d="M24 0C37.2548 0 48 10.7452 48 24C48 37.2548 37.2548 48 24 48C10.7452 48 0 37.2548 0 24C0 10.7452 10.7452 0 24 0Z" stroke="#E5E7EB"/>
<path fill-rule="evenodd" clip-rule="evenodd" d="M24.594 34.258L24.582 34.26L24.511 34.295L24.491 34.299L24.477 34.295L24.406 34.259C24.3954 34.2563 24.3874 34.2583 24.382 34.265L24.378 34.275L24.361 34.703L24.366 34.723L24.376 34.736L24.48 34.81L24.495 34.814L24.507 34.81L24.611 34.736L24.623 34.72L24.627 34.703L24.61 34.276C24.6074 34.2653 24.602 34.2593 24.594 34.258ZM24.858 34.145L24.844 34.147L24.66 34.24L24.65 34.25L24.647 34.261L24.665 34.691L24.67 34.703L24.6781 34.711L24.879 34.803C24.8917 34.8063 24.9014 34.8037 24.908 34.795L24.912 34.781L24.878 34.167C24.8747 34.1543 24.868 34.147 24.858 34.145ZM24.143 34.147C24.1386 34.1443 24.1334 34.1435 24.1283 34.1446C24.1233 34.1457 24.1189 34.1487 24.116 34.153L24.11 34.167L24.076 34.781C24.0767 34.793 24.0824 34.801 24.0931 34.805L24.108 34.803L24.309 34.71L24.319 34.702L24.322 34.691L24.34 34.261L24.337 34.249L24.327 34.239L24.143 34.147Z" fill="#EF4444"/>
<path d="M34 38H14V10H34V38Z" stroke="#E5E7EB"/>
<g clip-path="url(#clip0_2003_441)">
<path d="M24 33.5C26.6522 33.5 29.1957 32.4464 31.0711 30.5711C32.9464 28.6957 34 26.1522 34 23.5C34 20.8478 32.9464 18.3043 31.0711 16.4289C29.1957 14.5536 26.6522 13.5 24 13.5C21.3478 13.5 18.8043 14.5536 16.9289 16.4289C15.0536 18.3043 14 20.8478 14 23.5C14 26.1522 15.0536 28.6957 16.9289 30.5711C18.8043 32.4464 21.3478 33.5 24 33.5ZM20.4102 26.2148C21.1094 27.0234 22.3047 27.875 24 27.875C25.6953 27.875 26.8906 27.0234 27.5898 26.2148C27.8164 25.9531 28.2109 25.9258 28.4727 26.1523C28.7344 26.3789 28.7617 26.7734 28.5352 27.0352C27.6641 28.0352 26.1523 29.125 24 29.125C21.8477 29.125 20.3359 28.0352 19.4648 27.0352C19.2383 26.7734 19.2656 26.3789 19.5273 26.1523C19.7891 25.9258 20.1836 25.9531 20.4102 26.2148ZM19.6406 21.625C19.6406 21.2935 19.7723 20.9755 20.0067 20.7411C20.2412 20.5067 20.5591 20.375 20.8906 20.375C21.2221 20.375 21.5401 20.5067 21.7745 20.7411C22.0089 20.9755 22.1406 21.2935 22.1406 21.625C22.1406 21.9565 22.0089 22.2745 21.7745 22.5089C21.5401 22.7433 21.2221 22.875 20.8906 22.875C20.5591 22.875 20.2412 22.7433 20.0067 22.5089C19.7723 22.2745 19.6406 21.9565 19.6406 21.625ZM27.1406 20.375C27.4721 20.375 27.7901 20.5067 28.0245 20.7411C28.2589 20.9755 28.3906 21.2935 28.3906 21.625C28.3906 21.9565 28.2589 22.2745 28.0245 22.5089C27.7901 22.7433 27.4721 22.875 27.1406 22.875C26.8091 22.875 26.4912 22.7433 26.2567 22.5089C26.0223 22.2745 25.8906 21.9565 25.8906 21.625C25.8906 21.2935 26.0223 20.9755 26.2567 20.7411C26.4912 20.5067 26.8091 20.375 27.1406 20.375Z" fill="#22C55E"/>
</g>
<defs>
<clipPath id="clip0_2003_441">
<path d="M14 13.5H34V33.5H14V13.5Z" fill="white"/>
</clipPath>
</defs>
</svg>
