<svg width="48" height="48" viewBox="0 0 48 48" fill="none" xmlns="http://www.w3.org/2000/svg">
<path d="M24 0C37.2548 0 48 10.7452 48 24C48 37.2548 37.2548 48 24 48C10.7452 48 0 37.2548 0 24C0 10.7452 10.7452 0 24 0Z" fill="#AF1E1E" fill-opacity="0.3"/>
<path d="M24 0C37.2548 0 48 10.7452 48 24C48 37.2548 37.2548 48 24 48C10.7452 48 0 37.2548 0 24C0 10.7452 10.7452 0 24 0Z" stroke="#E5E7EB"/>
<path fill-rule="evenodd" clip-rule="evenodd" d="M24.594 34.258L24.582 34.26L24.511 34.295L24.491 34.299L24.477 34.295L24.406 34.259C24.3954 34.2563 24.3874 34.2583 24.382 34.265L24.378 34.275L24.361 34.703L24.366 34.723L24.376 34.736L24.48 34.81L24.495 34.814L24.507 34.81L24.611 34.736L24.623 34.72L24.627 34.703L24.61 34.276C24.6074 34.2653 24.602 34.2593 24.594 34.258ZM24.858 34.145L24.844 34.147L24.66 34.24L24.65 34.25L24.647 34.261L24.665 34.691L24.67 34.703L24.6781 34.711L24.879 34.803C24.8917 34.8063 24.9014 34.8037 24.908 34.795L24.912 34.781L24.878 34.167C24.8747 34.1543 24.868 34.147 24.858 34.145ZM24.143 34.147C24.1386 34.1443 24.1334 34.1435 24.1283 34.1446C24.1233 34.1457 24.1189 34.1487 24.116 34.153L24.11 34.167L24.076 34.781C24.0767 34.793 24.0824 34.801 24.0931 34.805L24.108 34.803L24.309 34.71L24.319 34.702L24.322 34.691L24.34 34.261L24.337 34.249L24.327 34.239L24.143 34.147Z" fill="#EF4444"/>
<path d="M24 34C22.6167 34 21.3167 33.7373 20.1 33.212C18.8833 32.6867 17.825 31.9743 16.925 31.075C16.025 30.1757 15.3127 29.1173 14.788 27.9C14.2633 26.6827 14.0007 25.3827 14 24C13.9993 22.6173 14.262 21.3173 14.788 20.1C15.314 18.8827 16.0263 17.8243 16.925 16.925C17.8237 16.0257 18.882 15.3133 20.1 14.788C21.318 14.2627 22.618 14 24 14C25.382 14 26.682 14.2627 27.9 14.788C29.118 15.3133 30.1763 16.0257 31.075 16.925C31.9737 17.8243 32.6863 18.8827 33.213 20.1C33.7397 21.3173 34.002 22.6173 34 24C33.998 25.3827 33.7353 26.6827 33.212 27.9C32.6887 29.1173 31.9763 30.1757 31.075 31.075C30.1737 31.9743 29.1153 32.687 27.9 33.213C26.6847 33.739 25.3847 34.0013 24 34ZM19.45 24.6L23.025 22L19.45 19.4L18.55 20.6L20.475 22L18.55 23.4L19.45 24.6ZM22.5 29.05L24 27.55L25.5 29.05L27 27.55L27.975 28.525L29.025 27.475L27 25.45L25.5 26.95L24 25.45L22.5 26.95L21 25.45L18.975 27.475L20.025 28.525L21 27.55L22.5 29.05ZM28.55 24.6L29.45 23.4L27.525 22L29.45 20.6L28.55 19.4L24.975 22L28.55 24.6Z" fill="#AF1E1E"/>
</svg>
