<svg width="48" height="48" viewBox="0 0 48 48" fill="none" xmlns="http://www.w3.org/2000/svg">
<path d="M24 0C37.2548 0 48 10.7452 48 24C48 37.2548 37.2548 48 24 48C10.7452 48 0 37.2548 0 24C0 10.7452 10.7452 0 24 0Z" fill="#4DB6AC" fill-opacity="0.3"/>
<path d="M24 0C37.2548 0 48 10.7452 48 24C48 37.2548 37.2548 48 24 48C10.7452 48 0 37.2548 0 24C0 10.7452 10.7452 0 24 0Z" stroke="#E5E7EB"/>
<path fill-rule="evenodd" clip-rule="evenodd" d="M24.594 34.258L24.582 34.26L24.511 34.295L24.491 34.299L24.477 34.295L24.406 34.259C24.3954 34.2563 24.3874 34.2583 24.382 34.265L24.378 34.275L24.361 34.703L24.366 34.723L24.376 34.736L24.48 34.81L24.495 34.814L24.507 34.81L24.611 34.736L24.623 34.72L24.627 34.703L24.61 34.276C24.6074 34.2653 24.602 34.2593 24.594 34.258ZM24.858 34.145L24.844 34.147L24.66 34.24L24.65 34.25L24.647 34.261L24.665 34.691L24.67 34.703L24.6781 34.711L24.879 34.803C24.8917 34.8063 24.9014 34.8037 24.908 34.795L24.912 34.781L24.878 34.167C24.8747 34.1543 24.868 34.147 24.858 34.145ZM24.143 34.147C24.1386 34.1443 24.1334 34.1435 24.1283 34.1446C24.1233 34.1457 24.1189 34.1487 24.116 34.153L24.11 34.167L24.076 34.781C24.0767 34.793 24.0824 34.801 24.0931 34.805L24.108 34.803L24.309 34.71L24.319 34.702L24.322 34.691L24.34 34.261L24.337 34.249L24.327 34.239L24.143 34.147Z" fill="#EF4444"/>
<path d="M24 29.5C24.5667 29.5 25.1 29.396 25.6 29.188C26.1 28.98 26.5667 28.684 27 28.3C27.15 28.1667 27.225 27.9917 27.225 27.775C27.225 27.5583 27.15 27.3833 27 27.25C26.85 27.1167 26.671 27.05 26.463 27.05C26.255 27.05 26.0673 27.1167 25.9 27.25C25.6167 27.4667 25.3167 27.6417 25 27.775C24.6833 27.9083 24.35 27.975 24 27.975C23.65 27.975 23.3167 27.9083 23 27.775C22.6833 27.6417 22.3833 27.4667 22.1 27.25C21.9333 27.1167 21.746 27.05 21.538 27.05C21.33 27.05 21.1507 27.1167 21 27.25C20.8493 27.3833 20.7743 27.5583 20.775 27.775C20.7757 27.9917 20.8507 28.1667 21 28.3C21.4333 28.6667 21.9 28.9583 22.4 29.175C22.9 29.3917 23.4333 29.5 24 29.5ZM24 34C22.6167 34 21.3167 33.7373 20.1 33.212C18.8833 32.6867 17.825 31.9743 16.925 31.075C16.025 30.1757 15.3127 29.1173 14.788 27.9C14.2633 26.6827 14.0007 25.3827 14 24C13.9993 22.6173 14.262 21.3173 14.788 20.1C15.314 18.8827 16.0263 17.8243 16.925 16.925C17.8237 16.0257 18.882 15.3133 20.1 14.788C21.318 14.2627 22.618 14 24 14C25.382 14 26.682 14.2627 27.9 14.788C29.118 15.3133 30.1763 16.0257 31.075 16.925C31.9737 17.8243 32.6863 18.8827 33.213 20.1C33.7397 21.3173 34.002 22.6173 34 24C33.998 25.3827 33.7353 26.6827 33.212 27.9C32.6887 29.1173 31.9763 30.1757 31.075 31.075C30.1737 31.9743 29.1153 32.687 27.9 33.213C26.6847 33.739 25.3847 34.0013 24 34ZM20.5 24C21.0667 24 21.5667 23.8167 22 23.45C22.4333 23.0833 22.7667 22.6333 23 22.1C23.0833 21.9167 23.0707 21.7417 22.962 21.575C22.8533 21.4083 22.6993 21.3 22.5 21.25C22.3167 21.2 22.1333 21.221 21.95 21.313C21.7667 21.405 21.6333 21.5423 21.55 21.725C21.4333 21.9417 21.2877 22.125 21.113 22.275C20.9383 22.425 20.734 22.5 20.5 22.5C20.266 22.5 20.0577 22.421 19.875 22.263C19.6923 22.105 19.5507 21.9173 19.45 21.7C19.3667 21.5167 19.2333 21.3833 19.05 21.3C18.8667 21.2167 18.6833 21.2 18.5 21.25C18.3 21.3 18.146 21.4043 18.038 21.563C17.93 21.7217 17.9173 21.8923 18 22.075C18.2333 22.6083 18.5627 23.0627 18.988 23.438C19.4133 23.8133 19.9173 24.0007 20.5 24ZM27.5 24C28.0667 24 28.5667 23.8167 29 23.45C29.4333 23.0833 29.7667 22.6333 30 22.1C30.0833 21.9167 30.0707 21.7417 29.962 21.575C29.8533 21.4083 29.6993 21.3 29.5 21.25C29.3167 21.2 29.1333 21.221 28.95 21.313C28.7667 21.405 28.6333 21.5423 28.55 21.725C28.4333 21.9417 28.2877 22.125 28.113 22.275C27.9383 22.425 27.734 22.5 27.5 22.5C27.266 22.5 27.0577 22.421 26.875 22.263C26.6923 22.105 26.5507 21.9173 26.45 21.7C26.3667 21.5167 26.2333 21.3833 26.05 21.3C25.8667 21.2167 25.6833 21.2 25.5 21.25C25.3 21.3 25.1457 21.4043 25.037 21.563C24.9283 21.7217 24.916 21.8923 25 22.075C25.2333 22.6083 25.5627 23.0627 25.988 23.438C26.4133 23.8133 26.9173 24.0007 27.5 24Z" fill="#4DB6AC"/>
</svg>
