<svg width="15" height="24" viewBox="0 0 15 24" fill="none" xmlns="http://www.w3.org/2000/svg">
<path d="M15 24H0V0H15V24Z" stroke="#E5E7EB"/>
<g clip-path="url(#clip0_2003_1004)">
<path d="M1.5 3C0.671875 3 0 3.67188 0 4.5V17.5C0 18.3281 0.671875 19 1.5 19H4.5V16.5C4.5 15.6719 5.17188 15 6 15C6.82812 15 7.5 15.6719 7.5 16.5V19H10.5C11.3281 19 12 18.3281 12 17.5V4.5C12 3.67188 11.3281 3 10.5 3H1.5ZM2 10.5C2 10.225 2.225 10 2.5 10H3.5C3.775 10 4 10.225 4 10.5V11.5C4 11.775 3.775 12 3.5 12H2.5C2.225 12 2 11.775 2 11.5V10.5ZM5.5 10H6.5C6.775 10 7 10.225 7 10.5V11.5C7 11.775 6.775 12 6.5 12H5.5C5.225 12 5 11.775 5 11.5V10.5C5 10.225 5.225 10 5.5 10ZM8 10.5C8 10.225 8.225 10 8.5 10H9.5C9.775 10 10 10.225 10 10.5V11.5C10 11.775 9.775 12 9.5 12H8.5C8.225 12 8 11.775 8 11.5V10.5ZM2.5 6H3.5C3.775 6 4 6.225 4 6.5V7.5C4 7.775 3.775 8 3.5 8H2.5C2.225 8 2 7.775 2 7.5V6.5C2 6.225 2.225 6 2.5 6ZM5 6.5C5 6.225 5.225 6 5.5 6H6.5C6.775 6 7 6.225 7 6.5V7.5C7 7.775 6.775 8 6.5 8H5.5C5.225 8 5 7.775 5 7.5V6.5ZM8.5 6H9.5C9.775 6 10 6.225 10 6.5V7.5C10 7.775 9.775 8 9.5 8H8.5C8.225 8 8 7.775 8 7.5V6.5C8 6.225 8.225 6 8.5 6Z" fill="#9CA3AF"/>
</g>
<defs>
<clipPath id="clip0_2003_1004">
<path d="M0 3H12V19H0V3Z" fill="white"/>
</clipPath>
</defs>
</svg>
