<svg width="16" height="23" viewBox="0 0 16 23" fill="none" xmlns="http://www.w3.org/2000/svg">
<path d="M16 23H0V0H16V23Z" stroke="#E5E7EB"/>
<g clip-path="url(#clip0_2003_884)">
<path d="M10.5 14C13.5375 14 16 11.5375 16 8.5C16 5.4625 13.5375 3 10.5 3C7.4625 3 5 5.4625 5 8.5C5 9.08437 5.09063 9.65 5.25938 10.1781L0.21875 15.2188C0.078125 15.3594 0 15.55 0 15.75V18.25C0 18.6656 0.334375 19 0.75 19H3.25C3.66563 19 4 18.6656 4 18.25V17H5.25C5.66563 17 6 16.6656 6 16.25V15H7.25C7.45 15 7.64062 14.9219 7.78125 14.7812L8.82187 13.7406C9.35 13.9094 9.91562 14 10.5 14ZM11.75 6C12.0815 6 12.3995 6.1317 12.6339 6.36612C12.8683 6.60054 13 6.91848 13 7.25C13 7.58152 12.8683 7.89946 12.6339 8.13388C12.3995 8.3683 12.0815 8.5 11.75 8.5C11.4185 8.5 11.1005 8.3683 10.8661 8.13388C10.6317 7.89946 10.5 7.58152 10.5 7.25C10.5 6.91848 10.6317 6.60054 10.8661 6.36612C11.1005 6.1317 11.4185 6 11.75 6Z" fill="#94A3B8"/>
</g>
<defs>
<clipPath id="clip0_2003_884">
<path d="M0 3H16V19H0V3Z" fill="white"/>
</clipPath>
</defs>
</svg>
